<svg width="621" height="325" viewBox="0 0 621 325" fill="none" xmlns="http://www.w3.org/2000/svg">
<rect width="70" height="70" fill="white"/>
<path d="M23.5498 36.835L35.5127 10.9609L48.125 36.835L52.5342 10.7559H67.7441L60.0879 61H45.6641L35.6836 43.9785L27.5488 61H11.04L2.29004 10.7559H17.8076L23.5498 36.835Z" fill="black"/>
<rect x="140" width="70" height="70" fill="white"/>
<path d="M183.555 64H165.547L165.703 6.57812H183.477L183.555 64Z" fill="black"/>
<rect x="70" width="70" height="70" fill="black"/>
<path d="M110.156 6.57812H130.156V64H110.156V46.4609H98.3984V64H78.3984V6.57812H98.3984V28.1406H110.156V7.04688V6.57812Z" fill="white"/>
<rect x="210" width="70" height="70" fill="black"/>
<path d="M271.914 51.7734C269.232 55.9141 265.69 59.2474 261.289 61.7734C256.888 64.2734 252.018 65.5234 246.68 65.5234C242.539 65.5234 238.646 64.7422 235 63.1797C231.38 61.5911 228.216 59.4427 225.508 56.7344C222.826 54 220.703 50.8229 219.141 47.2031C217.578 43.5833 216.797 39.6901 216.797 35.5234C216.797 31.3568 217.578 27.4635 219.141 23.8438C220.703 20.224 222.826 17.0729 225.508 14.3906C228.216 11.6823 231.38 9.54688 235 7.98438C238.646 6.39583 242.539 5.60156 246.68 5.60156C249.727 5.60156 252.643 6.03125 255.43 6.89062C258.242 7.72396 260.82 8.92188 263.164 10.4844C265.508 12.0208 267.617 13.8698 269.492 16.0312C271.367 18.1927 272.891 20.5885 274.062 23.2188L258.125 30.3281C257.109 28.0885 255.586 26.3047 253.555 24.9766C251.549 23.6224 249.258 22.9453 246.68 22.9453C244.935 22.9453 243.294 23.2839 241.758 23.9609C240.247 24.638 238.932 25.5365 237.812 26.6562C236.693 27.776 235.794 29.0911 235.117 30.6016C234.466 32.112 234.141 33.7526 234.141 35.5234C234.141 37.2682 234.466 38.9089 235.117 40.4453C235.794 41.9557 236.693 43.2839 237.812 44.4297C238.932 45.5755 240.247 46.487 241.758 47.1641C243.294 47.8151 244.935 48.1406 246.68 48.1406C249.102 48.1406 251.289 47.5286 253.242 46.3047C255.221 45.0807 256.745 43.4922 257.812 41.5391L271.914 51.7734Z" fill="white"/>
<rect y="242" width="70" height="70" fill="black"/>
<path d="M44.5215 251.167L66.3477 305H46.4624L44.375 298.408L27.0532 298.481L24.563 305H4.71436L25.6982 251.167H44.0088H44.5215ZM30.2026 287.678L40.4565 287.605L35.2197 273.945L30.2026 287.678Z" fill="white"/>
<rect x="390" width="70" height="70" fill="black"/>
<path d="M451.914 51.7734C449.232 55.9141 445.69 59.2474 441.289 61.7734C436.888 64.2734 432.018 65.5234 426.68 65.5234C422.539 65.5234 418.646 64.7422 415 63.1797C411.38 61.5911 408.216 59.4427 405.508 56.7344C402.826 54 400.703 50.8229 399.141 47.2031C397.578 43.5833 396.797 39.6901 396.797 35.5234C396.797 31.3568 397.578 27.4635 399.141 23.8438C400.703 20.224 402.826 17.0729 405.508 14.3906C408.216 11.6823 411.38 9.54688 415 7.98438C418.646 6.39583 422.539 5.60156 426.68 5.60156C429.727 5.60156 432.643 6.03125 435.43 6.89062C438.242 7.72396 440.82 8.92188 443.164 10.4844C445.508 12.0208 447.617 13.8698 449.492 16.0312C451.367 18.1927 452.891 20.5885 454.062 23.2188L438.125 30.3281C437.109 28.0885 435.586 26.3047 433.555 24.9766C431.549 23.6224 429.258 22.9453 426.68 22.9453C424.935 22.9453 423.294 23.2839 421.758 23.9609C420.247 24.638 418.932 25.5365 417.812 26.6562C416.693 27.776 415.794 29.0911 415.117 30.6016C414.466 32.112 414.141 33.7526 414.141 35.5234C414.141 37.2682 414.466 38.9089 415.117 40.4453C415.794 41.9557 416.693 43.2839 417.812 44.4297C418.932 45.5755 420.247 46.487 421.758 47.1641C423.294 47.8151 424.935 48.1406 426.68 48.1406C429.102 48.1406 431.289 47.5286 433.242 46.3047C435.221 45.0807 436.745 43.4922 437.812 41.5391L451.914 51.7734Z" fill="white"/>
<rect x="460" width="70" height="70" fill="white"/>
<path d="M505.859 6.57812H525.625V64H505.547L484.18 37.0469V64H465.625V6.57812H486.562L505.859 30.3281V6.57812Z" fill="black"/>
<rect x="70" y="242" width="70" height="70" fill="white"/>
<path d="M133.867 306H111.758L102.109 289.047H100.078L100.352 306H81.7578L81.2891 248.578H112.578C115.99 248.786 119.049 249.633 121.758 251.117C122.956 251.768 124.089 252.589 125.156 253.578C126.25 254.542 127.24 255.753 128.125 257.211C129.01 258.643 129.714 260.336 130.234 262.289C130.781 264.242 131.081 266.495 131.133 269.047C131.341 271.443 131.159 273.734 130.586 275.922C130.299 276.885 129.935 277.862 129.492 278.852C129.049 279.841 128.451 280.792 127.695 281.703C126.94 282.589 126.029 283.448 124.961 284.281C123.893 285.115 122.643 285.818 121.211 286.391L133.867 306ZM110.273 273.617C111.003 273.617 111.667 273.474 112.266 273.188C112.734 272.927 113.164 272.549 113.555 272.055C113.971 271.534 114.18 270.74 114.18 269.672C114.128 268.656 113.88 267.901 113.438 267.406C113.021 266.885 112.552 266.495 112.031 266.234C111.432 265.974 110.729 265.844 109.922 265.844L99.7656 265.922L99.8438 273.617H110.273Z" fill="black"/>
<rect x="140" y="242" width="70" height="70" fill="black"/>
<path d="M197.07 263.266H173.711V270.258H194.297V282.641H173.711V290.258H197.07V306H155.898V248.578H197.07V263.266Z" fill="white"/>
<rect x="266" y="244" width="70" height="70" fill="white"/>
<path d="M314.477 250.578H333.852L311.469 292.727V308H291.469V292.727L268.109 250.578H288.5L301.391 274.328L313.773 250.578H314.477Z" fill="black"/>
<rect x="336" y="244" width="70" height="70" fill="black"/>
<path d="M371.513 252.398C375.419 252.398 379.069 253.143 382.462 254.632C385.856 256.097 388.822 258.111 391.361 260.674C393.925 263.213 395.939 266.18 397.404 269.573C398.893 272.967 399.638 276.617 399.638 280.523C399.638 284.429 398.893 288.079 397.404 291.473C395.939 294.866 393.925 297.845 391.361 300.408C388.822 302.947 385.856 304.961 382.462 306.451C379.069 307.916 375.419 308.648 371.513 308.648C367.606 308.648 363.957 307.916 360.563 306.451C357.169 304.961 354.191 302.947 351.627 300.408C349.088 297.845 347.074 294.866 345.585 291.473C344.12 288.079 343.388 284.429 343.388 280.523C343.388 276.617 344.12 272.967 345.585 269.573C347.074 266.18 349.088 263.213 351.627 260.674C354.191 258.111 357.169 256.097 360.563 254.632C363.957 253.143 367.606 252.398 371.513 252.398ZM371.513 292.388C373.173 292.388 374.711 292.071 376.127 291.436C377.543 290.801 378.788 289.947 379.862 288.873C380.937 287.798 381.791 286.553 382.426 285.137C383.061 283.721 383.378 282.183 383.378 280.523C383.378 278.863 383.061 277.325 382.426 275.909C381.791 274.493 380.937 273.248 379.862 272.173C378.788 271.099 377.543 270.245 376.127 269.61C374.711 268.975 373.173 268.658 371.513 268.658C369.853 268.658 368.314 268.975 366.898 269.61C365.482 270.245 364.25 271.099 363.2 272.173C362.15 273.248 361.308 274.493 360.673 275.909C360.038 277.325 359.721 278.863 359.721 280.523C359.721 282.183 360.038 283.721 360.673 285.137C361.308 286.553 362.15 287.798 363.2 288.873C364.25 289.947 365.482 290.801 366.898 291.436C368.314 292.071 369.853 292.388 371.513 292.388Z" fill="white"/>
<rect x="406" y="244" width="70" height="70" fill="white"/>
<path d="M435.883 250.461L436.352 282.727C436.352 283.638 436.417 284.523 436.547 285.383C436.677 286.216 436.924 286.958 437.289 287.609C437.68 288.234 438.214 288.755 438.891 289.172C439.594 289.562 440.531 289.758 441.703 289.758C443.031 289.758 444.06 289.471 444.789 288.898C445.518 288.299 446.013 287.622 446.273 286.867C446.586 286.034 446.742 285.083 446.742 284.016L446.273 250.578H463.773C463.826 257.115 463.904 263.052 464.008 268.391C464.008 270.682 464.021 272.948 464.047 275.188C464.073 277.427 464.099 279.471 464.125 281.32C464.177 283.169 464.216 284.745 464.242 286.047C464.268 287.349 464.281 288.182 464.281 288.547C464.281 289.042 464.281 289.862 464.281 291.008C464.281 292.154 464.086 293.443 463.695 294.875C463.331 296.307 462.706 297.792 461.82 299.328C460.935 300.839 459.633 302.232 457.914 303.508C456.221 304.784 454.021 305.852 451.312 306.711C448.63 307.57 445.297 308.026 441.312 308.078C438.318 308.13 435.688 307.948 433.422 307.531C431.156 307.089 429.203 306.503 427.562 305.773C425.948 305.018 424.594 304.159 423.5 303.195C422.406 302.232 421.547 301.242 420.922 300.227C419.307 297.883 418.526 295.161 418.578 292.062L418.031 250.578H435.883V250.461Z" fill="black"/>
<rect x="490" y="244" width="70" height="70" fill="black"/>
<path d="M515.703 289.133C515.703 286.294 516.211 283.651 517.227 281.203C517.643 280.083 518.138 279.055 518.711 278.117C519.31 277.18 519.896 276.346 520.469 275.617C521.719 274.107 522.852 273 523.867 272.297C524.909 271.568 525.573 271.125 525.859 270.969L526.25 270.734L526.641 270.578C527.552 270.188 528.281 269.615 528.828 268.859C529.401 268.078 529.688 267.232 529.688 266.32C529.688 265.852 529.609 265.37 529.453 264.875C529.089 263.859 528.424 263.039 527.461 262.414C527.018 262.128 526.523 261.893 525.977 261.711C525.456 261.529 524.909 261.438 524.336 261.438C523.841 261.438 523.359 261.516 522.891 261.672C521.719 261.984 520.807 262.544 520.156 263.352C519.479 264.211 519.141 265.174 519.141 266.242C519.141 266.451 519.154 266.672 519.18 266.906C519.206 267.115 519.245 267.349 519.297 267.609C519.714 268.625 520.299 269.393 521.055 269.914L511.445 280.305C508.294 278.065 506.107 275.109 504.883 271.438C504.362 269.797 504.102 268.065 504.102 266.242C504.102 262.128 505.404 258.521 508.008 255.422C509.232 253.885 510.729 252.531 512.5 251.359C514.297 250.188 516.315 249.302 518.555 248.703C520.482 248.234 522.409 248 524.336 248C526.576 248 528.711 248.312 530.742 248.938C532.799 249.536 534.688 250.396 536.406 251.516C538.125 252.688 539.635 254.081 540.938 255.695C542.24 257.284 543.203 259.068 543.828 261.047C544.427 262.922 544.727 264.68 544.727 266.32C544.674 269.68 543.685 272.818 541.758 275.734C539.857 278.625 537.188 280.878 533.75 282.492C533.646 282.544 533.464 282.701 533.203 282.961C532.943 283.221 532.63 283.599 532.266 284.094C531.927 284.562 531.628 285.122 531.367 285.773C531.159 286.19 531.003 286.672 530.898 287.219C530.794 287.74 530.742 288.378 530.742 289.133C530.742 289.549 530.768 290.005 530.82 290.5C530.872 290.969 530.977 291.49 531.133 292.062L516.328 294.797C515.911 292.661 515.703 290.773 515.703 289.133ZM531.836 302.141C531.836 303.104 531.654 304.003 531.289 304.836C530.924 305.669 530.417 306.398 529.766 307.023C529.115 307.622 528.359 308.091 527.5 308.43C526.667 308.794 525.768 308.977 524.805 308.977C523.841 308.977 522.917 308.794 522.031 308.43C521.172 308.091 520.417 307.622 519.766 307.023C519.115 306.398 518.607 305.669 518.242 304.836C517.878 304.003 517.695 303.104 517.695 302.141C517.695 300.292 518.385 298.716 519.766 297.414C521.146 296.086 522.826 295.422 524.805 295.422C525.768 295.422 526.667 295.604 527.5 295.969C528.359 296.307 529.115 296.789 529.766 297.414C530.417 298.013 530.924 298.729 531.289 299.562C531.654 300.396 531.836 301.255 531.836 302.141Z" fill="white"/>
<rect x="21" y="121" width="70" height="70" fill="white"/>
<path d="M69.0859 127.578H89.0859L66.7031 185H46.7812L23.3438 127.578H43.8125L56.625 160.586L68.8516 128.203L69.0859 127.578Z" fill="black"/>
<rect x="91" y="121" width="70" height="70" fill="black"/>
<path d="M134.555 185H116.547L116.703 127.578H134.477L134.555 185Z" fill="white"/>
<rect x="161" y="121" width="70" height="70" fill="white"/>
<path d="M196.586 167.969H215.648V185H176.586V127.578H196.586V167.969Z" fill="black"/>
<rect x="231" y="121" width="70" height="70" fill="black"/>
<path d="M266.586 167.969H285.648V185H246.586V127.578H266.586V167.969Z" fill="white"/>
<rect x="301" y="121" width="70" height="70" fill="white"/>
<path d="M346.156 127.578L369.438 185H348.227L346 177.969L327.523 178.047L324.867 185H303.695L326.078 127.578H345.609H346.156ZM330.883 166.523L341.82 166.445L336.234 151.875L330.883 166.523Z" fill="black"/>
<rect x="371" y="121" width="70" height="70" fill="black"/>
<path d="M414.555 185H396.547L396.703 127.578H414.477L414.555 185Z" fill="white"/>
<rect x="441" y="121" width="70" height="70" fill="white"/>
<path d="M486.859 127.578H506.625V185H486.547L465.18 158.047V185H446.625V127.578H467.562L486.859 151.328V127.578Z" fill="black"/>
<rect x="280" width="70" height="70" fill="white"/>
<path d="M320.156 6.57812H340.156V64H320.156V46.4609H308.398V64H288.398V6.57812H308.398V28.1406H320.156V7.04688V6.57812Z" fill="black"/>
</svg>
