<svg id="Layer_1" data-name="Layer 1" xmlns="http://www.w3.org/2000/svg" viewBox="0 0 546.64 312.58"><defs><style>.cls-1{fill:#fff;}</style></defs><rect class="cls-1" width="70" height="70"/><path d="M62,36.83,74,11,86.62,36.83,91,10.76h15.21L98.58,61H84.15l-10-17L66,61H49.53L40.78,10.76H56.3Z" transform="translate(-38.49)"/><rect class="cls-1" x="140" width="70" height="70"/><path d="M222.05,64H204l.15-57.42H222Z" transform="translate(-38.49)"/><rect x="70" width="70" height="70"/><path class="cls-1" d="M148.65,6.58h20V64h-20V46.46H136.89V64h-20V6.58h20V28.14h11.76V6.58Z" transform="translate(-38.49)"/><rect x="210" width="70" height="70"/><path class="cls-1" d="M310.4,51.77a30.51,30.51,0,0,1-10.62,10,29.05,29.05,0,0,1-14.61,3.75,29.39,29.39,0,0,1-11.68-2.34,30,30,0,0,1-15.86-16,29.18,29.18,0,0,1-2.34-11.68,29.22,29.22,0,0,1,2.34-11.68A30,30,0,0,1,273.49,8,29.08,29.08,0,0,1,285.17,5.6a29.5,29.5,0,0,1,8.75,1.29,28.31,28.31,0,0,1,7.73,3.59A30.33,30.33,0,0,1,308,16a28.58,28.58,0,0,1,4.57,7.19l-15.93,7.11A12.34,12.34,0,0,0,292.05,25a12.6,12.6,0,0,0-11.8-1,13.19,13.19,0,0,0-3.95,2.7,12.93,12.93,0,0,0-2.69,3.94,12.31,12.31,0,0,0-1,4.92,12.54,12.54,0,0,0,1,4.93,13.5,13.5,0,0,0,2.69,4,12.58,12.58,0,0,0,3.95,2.73,12.32,12.32,0,0,0,4.92,1,12,12,0,0,0,6.56-1.84,12.63,12.63,0,0,0,4.57-4.76Z" transform="translate(-38.49)"/><rect y="242" width="70" height="70"/><path class="cls-1" d="M83,251.17,104.84,305H85l-2.08-6.59-17.33.07L63.05,305H43.2l21-53.83H83ZM68.69,287.68,79,287.61,73.71,274Z" transform="translate(-38.49)"/><rect x="390" width="70" height="70"/><path class="cls-1" d="M490.4,51.77a30.51,30.51,0,0,1-10.62,10,29.05,29.05,0,0,1-14.61,3.75,29.39,29.39,0,0,1-11.68-2.34,30,30,0,0,1-15.86-16,29.18,29.18,0,0,1-2.34-11.68,29.22,29.22,0,0,1,2.34-11.68A30,30,0,0,1,453.49,8,29.08,29.08,0,0,1,465.17,5.6a29.5,29.5,0,0,1,8.75,1.29,28.31,28.31,0,0,1,7.73,3.59A30.33,30.33,0,0,1,488,16a28.58,28.58,0,0,1,4.57,7.19l-15.93,7.11A12.34,12.34,0,0,0,472.05,25a12.6,12.6,0,0,0-11.8-1,13.19,13.19,0,0,0-3.95,2.7,12.93,12.93,0,0,0-2.69,3.94,12.31,12.31,0,0,0-1,4.92,12.54,12.54,0,0,0,1,4.93,13.5,13.5,0,0,0,2.69,4,12.58,12.58,0,0,0,3.95,2.73,12.32,12.32,0,0,0,4.92,1,12,12,0,0,0,6.56-1.84,12.63,12.63,0,0,0,4.57-4.76Z" transform="translate(-38.49)"/><rect class="cls-1" x="460" width="70" height="70"/><path d="M544.35,6.58h19.77V64H544L522.67,37.05V64H504.12V6.58h20.93l19.3,23.75Z" transform="translate(-38.49)"/><rect class="cls-1" x="70" y="242" width="70" height="70"/><path d="M172.36,306H150.25l-9.65-16.95h-2l.27,16.95H120.25l-.47-57.42h31.29a21.54,21.54,0,0,1,9.18,2.54,16.75,16.75,0,0,1,3.4,2.46,15.62,15.62,0,0,1,3,3.63,19,19,0,0,1,2.1,5.08,26.92,26.92,0,0,1,.9,6.76,20.1,20.1,0,0,1-.54,6.87,22.89,22.89,0,0,1-1.1,2.93,12.43,12.43,0,0,1-1.79,2.85,18.45,18.45,0,0,1-2.74,2.58,15.37,15.37,0,0,1-3.75,2.11Zm-23.6-32.38a4.69,4.69,0,0,0,2-.43,4.53,4.53,0,0,0,1.29-1.14,3.81,3.81,0,0,0,.62-2.38,3.59,3.59,0,0,0-.74-2.26,4.32,4.32,0,0,0-1.41-1.18,5.26,5.26,0,0,0-2.11-.39l-10.15.08.07,7.7Z" transform="translate(-38.49)"/><rect x="140" y="242" width="70" height="70"/><path class="cls-1" d="M235.56,263.27H212.2v7h20.59v12.38H212.2v7.62h23.36V306H194.39V248.58h41.17Z" transform="translate(-38.49)"/><rect class="cls-1" x="252.64" y="242.58" width="70" height="70"/><path d="M339.61,249.16H359L336.6,291.3v15.28h-20V291.3l-23.36-42.14h20.39l12.89,23.75,12.38-23.75Z" transform="translate(-38.49)"/><rect x="322.64" y="242.58" width="70" height="70"/><path class="cls-1" d="M396.64,251a26.91,26.91,0,0,1,10.95,2.23,28.6,28.6,0,0,1,14.94,14.94,27.88,27.88,0,0,1,0,21.9,28.57,28.57,0,0,1-6,8.94,29.07,29.07,0,0,1-8.9,6,28.35,28.35,0,0,1-21.9,0,28.47,28.47,0,0,1-15-15,28.47,28.47,0,0,1,0-21.9,28.93,28.93,0,0,1,6.05-8.9,28.41,28.41,0,0,1,8.93-6A26.94,26.94,0,0,1,396.64,251Zm0,40a11.11,11.11,0,0,0,4.62-1,12.39,12.39,0,0,0,3.73-2.56,12.14,12.14,0,0,0,2.56-3.74,11.55,11.55,0,0,0,0-9.22,12.26,12.26,0,0,0-2.56-3.74,12.39,12.39,0,0,0-3.73-2.56,11.68,11.68,0,0,0-9.23,0,11.9,11.9,0,0,0-3.7,2.56,12.92,12.92,0,0,0-2.53,3.74,11.66,11.66,0,0,0,0,9.22,12.79,12.79,0,0,0,2.53,3.74A11.9,11.9,0,0,0,392,290,11,11,0,0,0,396.64,291Z" transform="translate(-38.49)"/><rect class="cls-1" x="392.64" y="242.58" width="70" height="70"/><path d="M461,249l.47,32.26a17.7,17.7,0,0,0,.2,2.66,6.52,6.52,0,0,0,.74,2.23,4.88,4.88,0,0,0,1.6,1.56,5.78,5.78,0,0,0,2.81.59,4.92,4.92,0,0,0,3.09-.86,4.57,4.57,0,0,0,1.48-2,8.21,8.21,0,0,0,.47-2.86l-.47-33.43h17.5q.08,9.79.24,17.81,0,3.43,0,6.8c0,2.24.05,4.28.07,6.13s.09,3.42.12,4.72,0,2.14,0,2.5v2.47a14.87,14.87,0,0,1-.59,3.86,17.73,17.73,0,0,1-1.87,4.46,14.41,14.41,0,0,1-3.91,4.18,22.06,22.06,0,0,1-6.6,3.2,34.91,34.91,0,0,1-10,1.37,40.11,40.11,0,0,1-7.89-.55,27.17,27.17,0,0,1-5.86-1.76,16.65,16.65,0,0,1-4.06-2.58,13.13,13.13,0,0,1-2.58-3,13.57,13.57,0,0,1-2.34-8.16l-.55-41.48H461Z" transform="translate(-38.49)"/><rect x="476.64" y="242.58" width="70" height="70"/><path class="cls-1" d="M540.83,287.71a20.41,20.41,0,0,1,1.53-7.93,17.22,17.22,0,0,1,1.48-3.08,28.21,28.21,0,0,1,1.76-2.5,17.51,17.51,0,0,1,3.4-3.32c1-.73,1.7-1.18,2-1.33l.39-.24.39-.15a5.21,5.21,0,0,0,2.19-1.72,4.23,4.23,0,0,0,.86-2.54,4.73,4.73,0,0,0-.24-1.45,4.86,4.86,0,0,0-2-2.46,6.73,6.73,0,0,0-1.48-.7,5.05,5.05,0,0,0-1.65-.27,4.43,4.43,0,0,0-1.44.23,5.09,5.09,0,0,0-2.74,1.68,4.58,4.58,0,0,0-1,2.89,5.07,5.07,0,0,0,0,.66,5.54,5.54,0,0,0,.12.71,5,5,0,0,0,1.75,2.3l-9.61,10.39A17.37,17.37,0,0,1,530,270a17.13,17.13,0,0,1-.78-5.2A16.29,16.29,0,0,1,533.14,254a19.1,19.1,0,0,1,4.49-4.06,21,21,0,0,1,6-2.66,24.37,24.37,0,0,1,5.78-.7,21.52,21.52,0,0,1,6.41.94,20.65,20.65,0,0,1,5.66,2.57,21.48,21.48,0,0,1,4.54,4.18,16.15,16.15,0,0,1,2.89,5.35,16.23,16.23,0,0,1-2.07,14.69,18.93,18.93,0,0,1-8,6.76,2.63,2.63,0,0,0-.55.47,11.35,11.35,0,0,0-.94,1.13,8.25,8.25,0,0,0-.89,1.68,5.37,5.37,0,0,0-.47,1.45,9.46,9.46,0,0,0-.16,1.91c0,.42,0,.87.08,1.37a10.71,10.71,0,0,0,.31,1.56l-14.8,2.74A29.87,29.87,0,0,1,540.83,287.71Zm16.13,13a6.7,6.7,0,0,1-.54,2.69,6.61,6.61,0,0,1-1.53,2.19,7.19,7.19,0,0,1-2.26,1.41,6.71,6.71,0,0,1-2.7.54,7.6,7.6,0,0,1-5-1.95,6.73,6.73,0,0,1-2.07-4.88,6.26,6.26,0,0,1,2.07-4.73,7,7,0,0,1,5-2,6.55,6.55,0,0,1,2.7.55,6.92,6.92,0,0,1,2.26,1.44,6.35,6.35,0,0,1,1.53,2.15A6.42,6.42,0,0,1,557,300.72Z" transform="translate(-38.49)"/><rect class="cls-1" y="121.29" width="70" height="70"/><path d="M86.58,127.87h20L84.19,185.29H64.27L40.83,127.87H61.3l12.82,33,12.22-32.39Z" transform="translate(-38.49)"/><rect x="70" y="121.29" width="70" height="70"/><path class="cls-1" d="M152.05,185.29H134l.15-57.42H152Z" transform="translate(-38.49)"/><rect class="cls-1" x="140" y="121.29" width="70" height="70"/><path d="M214.08,168.26h19.06v17H194.08V127.87h20Z" transform="translate(-38.49)"/><rect x="210" y="121.29" width="70" height="70"/><path class="cls-1" d="M284.08,168.26h19.06v17H264.08V127.87h20Z" transform="translate(-38.49)"/><rect class="cls-1" x="280" y="121.29" width="70" height="70"/><path d="M363.65,127.87l23.28,57.42H365.72l-2.23-7-18.48.08-2.65,6.95H321.19l22.38-57.42h20.08Zm-15.28,38.94,10.94-.08-5.59-14.57Z" transform="translate(-38.49)"/><rect x="350" y="121.29" width="70" height="70"/><path class="cls-1" d="M432.05,185.29H414l.15-57.42H432Z" transform="translate(-38.49)"/><rect class="cls-1" x="420" y="121.29" width="70" height="70"/><path d="M504.35,127.87h19.77v57.42H504l-21.37-26.95v26.95H464.12V127.87h20.93l19.3,23.75Z" transform="translate(-38.49)"/><rect class="cls-1" x="280" width="70" height="70"/><path d="M358.65,6.58h20V64h-20V46.46H346.89V64h-20V6.58h20V28.14h11.76V6.58Z" transform="translate(-38.49)"/></svg>