<svg width="210" height="70" viewBox="0 0 210 70" fill="none" xmlns="http://www.w3.org/2000/svg">
<rect width="70" height="70" fill="white"/>
<rect x="70" width="70" height="70" fill="black"/>
<rect x="140" width="70" height="70" fill="white"/>
<path d="M45.1562 6.57812L68.4375 64H47.2266L45 56.9688L26.5234 57.0469L23.8672 64H2.69531L25.0781 6.57812H44.6094H45.1562ZM29.8828 45.5234L40.8203 45.4453L35.2344 30.875L29.8828 45.5234Z" fill="black"/>
<path d="M169.883 6.46094L170.352 38.7266C170.352 39.638 170.417 40.5234 170.547 41.3828C170.677 42.2161 170.924 42.9583 171.289 43.6094C171.68 44.2344 172.214 44.7552 172.891 45.1719C173.594 45.5625 174.531 45.7578 175.703 45.7578C177.031 45.7578 178.06 45.4714 178.789 44.8984C179.518 44.2995 180.013 43.6224 180.273 42.8672C180.586 42.0339 180.742 41.0833 180.742 40.0156L180.273 6.57812H197.773C197.826 13.1146 197.904 19.0521 198.008 24.3906C198.008 26.6823 198.021 28.9479 198.047 31.1875C198.073 33.4271 198.099 35.4714 198.125 37.3203C198.177 39.1693 198.216 40.7448 198.242 42.0469C198.268 43.349 198.281 44.1823 198.281 44.5469C198.281 45.0417 198.281 45.862 198.281 47.0078C198.281 48.1536 198.086 49.4427 197.695 50.875C197.331 52.3073 196.706 53.7917 195.82 55.3281C194.935 56.8385 193.633 58.2318 191.914 59.5078C190.221 60.7839 188.021 61.8516 185.312 62.7109C182.63 63.5703 179.297 64.026 175.312 64.0781C172.318 64.1302 169.688 63.9479 167.422 63.5312C165.156 63.0885 163.203 62.5026 161.562 61.7734C159.948 61.0182 158.594 60.1589 157.5 59.1953C156.406 58.2318 155.547 57.2422 154.922 56.2266C153.307 53.8828 152.526 51.1615 152.578 48.0625L152.031 6.57812H169.883V6.46094Z" fill="black"/>
<path d="M131.914 6.57812L107.891 35.2109L132.07 64H112.695L99.4922 48.2578V64H82.3828V6.57812H99.4922V22.1641L112.539 6.57812H131.328H131.914Z" fill="white"/>
</svg>
