<svg width="420" height="70" viewBox="0 0 420 70" fill="none" xmlns="http://www.w3.org/2000/svg">
<rect width="70" height="70" fill="white"/>
<rect x="70" width="70" height="70" fill="black"/>
<rect x="140" width="70" height="70" fill="white"/>
<rect x="210" width="70" height="70" fill="black"/>
<rect x="350" width="70" height="70" fill="black"/>
<path d="M407.07 21.2656H383.711V28.2578H404.297V40.6406H383.711V48.2578H407.07V64H365.898V6.57812H407.07V21.2656Z" fill="white"/>
<path d="M61.9141 51.7734C59.2318 55.9141 55.6901 59.2474 51.2891 61.7734C46.888 64.2734 42.0182 65.5234 36.6797 65.5234C32.5391 65.5234 28.6458 64.7422 25 63.1797C21.3802 61.5911 18.2161 59.4427 15.5078 56.7344C12.8255 54 10.7031 50.8229 9.14062 47.2031C7.57812 43.5833 6.79688 39.6901 6.79688 35.5234C6.79688 31.3568 7.57812 27.4635 9.14062 23.8438C10.7031 20.224 12.8255 17.0729 15.5078 14.3906C18.2161 11.6823 21.3802 9.54688 25 7.98438C28.6458 6.39583 32.5391 5.60156 36.6797 5.60156C39.7266 5.60156 42.6432 6.03125 45.4297 6.89062C48.2422 7.72396 50.8203 8.92188 53.1641 10.4844C55.5078 12.0208 57.6172 13.8698 59.4922 16.0312C61.3672 18.1927 62.8906 20.5885 64.0625 23.2188L48.125 30.3281C47.1094 28.0885 45.5859 26.3047 43.5547 24.9766C41.5495 23.6224 39.2578 22.9453 36.6797 22.9453C34.9349 22.9453 33.2943 23.2839 31.7578 23.9609C30.2474 24.638 28.9323 25.5365 27.8125 26.6562C26.6927 27.776 25.7943 29.0911 25.1172 30.6016C24.4661 32.112 24.1406 33.7526 24.1406 35.5234C24.1406 37.2682 24.4661 38.9089 25.1172 40.4453C25.7943 41.9557 26.6927 43.2839 27.8125 44.4297C28.9323 45.5755 30.2474 46.487 31.7578 47.1641C33.2943 47.8151 34.9349 48.1406 36.6797 48.1406C39.1016 48.1406 41.2891 47.5286 43.2422 46.3047C45.2214 45.0807 46.7448 43.4922 47.8125 41.5391L61.9141 51.7734Z" fill="black"/>
<path d="M197.07 21.2656H173.711V28.2578H194.297V40.6406H173.711V48.2578H197.07V64H155.898V6.57812H197.07V21.2656Z" fill="black"/>
<path d="M110.156 6.57812H130.156V64H110.156V46.4609H98.3984V64H78.3984V6.57812H98.3984V28.1406H110.156V7.04688V6.57812Z" fill="white"/>
<path d="M267.07 21.2656H243.711V28.2578H264.297V40.6406H243.711V48.2578H267.07V64H225.898V6.57812H267.07V21.2656Z" fill="white"/>
<rect x="280" width="70" height="70" fill="white"/>
<path d="M335.43 39.2734C335.898 40.3411 336.328 41.7214 336.719 43.4141C337.135 45.0807 337.188 46.9297 336.875 48.9609C336.589 50.9922 335.794 53.1146 334.492 55.3281C333.19 57.5417 331.042 59.7161 328.047 61.8516C327.839 62.0078 327.643 62.151 327.461 62.2812C327.279 62.4115 327.083 62.5286 326.875 62.6328C326.536 62.8411 326.237 63.0234 325.977 63.1797C325.716 63.3099 325.456 63.4271 325.195 63.5312C324.909 63.6354 324.648 63.7266 324.414 63.8047C324.18 63.8828 323.932 63.974 323.672 64.0781C320.677 65.0417 317.578 65.5234 314.375 65.5234C309.948 65.5234 305.82 64.6641 301.992 62.9453C298.19 61.2005 294.909 58.8047 292.148 55.7578L302.539 45.5234C303.659 46.7995 304.961 47.8802 306.445 48.7656C307.956 49.651 309.557 50.25 311.25 50.5625C312.865 50.8229 314.518 50.7318 316.211 50.2891C317.93 49.8203 319.102 49.0521 319.727 47.9844C320.065 47.4635 320.234 47.0208 320.234 46.6562C320.234 46.2656 320.143 45.9271 319.961 45.6406C319.805 45.3542 319.622 45.1458 319.414 45.0156C319.206 44.8594 319.076 44.7552 319.023 44.7031C317.096 43.974 315.13 43.3099 313.125 42.7109C311.146 42.0859 309.193 41.4479 307.266 40.7969C305.703 40.276 304.206 39.7422 302.773 39.1953C301.341 38.6224 300.013 37.9583 298.789 37.2031C296.966 36.0833 295.521 34.7812 294.453 33.2969L294.375 33.2188C294.167 32.8802 293.971 32.5547 293.789 32.2422C293.607 31.9297 293.451 31.5781 293.32 31.1875C292.852 30.1198 292.396 28.7526 291.953 27.0859C291.536 25.3932 291.471 23.5443 291.758 21.5391C292.07 19.5078 292.891 17.3724 294.219 15.1328C295.547 12.8932 297.708 10.7057 300.703 8.57031C301.276 8.1276 301.784 7.78906 302.227 7.55469C302.695 7.32031 303.125 7.125 303.516 6.96875H303.594C303.854 6.86458 304.089 6.77344 304.297 6.69531C304.505 6.61719 304.753 6.51302 305.039 6.38281C307.956 5.44531 311.068 4.97656 314.375 4.97656C318.438 4.97656 322.253 5.70573 325.82 7.16406C329.388 8.6224 332.539 10.6667 335.273 13.2969L324.766 23.5312C323.021 21.9167 320.977 20.7969 318.633 20.1719C318.581 20.1719 318.542 20.1589 318.516 20.1328C318.49 20.1068 318.411 20.0938 318.281 20.0938C317.5 19.8594 316.641 19.7682 315.703 19.8203C314.766 19.8464 313.867 19.9635 313.008 20.1719C312.174 20.3802 311.406 20.6927 310.703 21.1094C310 21.5 309.466 21.9557 309.102 22.4766C308.789 23.0234 308.633 23.4922 308.633 23.8828C308.633 24.2734 308.711 24.612 308.867 24.8984C309.023 25.1589 309.206 25.3672 309.414 25.5234C309.622 25.6797 309.779 25.7578 309.883 25.7578C311.445 26.3568 313.021 26.9036 314.609 27.3984C316.224 27.8932 317.799 28.4141 319.336 28.9609C321.315 29.5599 323.19 30.2109 324.961 30.9141C326.758 31.5911 328.398 32.3854 329.883 33.2969C331.758 34.4167 333.229 35.7188 334.297 37.2031C334.297 37.2031 334.323 37.2552 334.375 37.3594C334.688 37.8281 335.039 38.4661 335.43 39.2734Z" fill="black"/>
</svg>
