<svg width="350" height="140" viewBox="0 0 350 140" fill="none" xmlns="http://www.w3.org/2000/svg">
<rect width="70" height="70" fill="white"/>
<rect x="70" width="70" height="70" fill="black"/>
<rect x="140" width="70" height="70" fill="white"/>
<rect x="210" width="70" height="70" fill="black"/>
<path d="M30.2344 6.57812C30.9635 6.57812 32.1745 6.61719 33.8672 6.69531C35.5859 6.77344 37.526 7.08594 39.6875 7.63281C41.849 8.15365 44.0755 9 46.3672 10.1719C48.6589 11.3438 50.7682 12.9974 52.6953 15.1328C54.6224 17.2682 56.1979 19.9766 57.4219 23.2578C58.6458 26.513 59.2839 30.5495 59.3359 35.3672C59.3359 38.9349 58.9974 42.0859 58.3203 44.8203C57.6693 47.5286 56.7839 49.8854 55.6641 51.8906C54.5443 53.8958 53.2552 55.5885 51.7969 56.9688C50.3646 58.349 48.9062 59.4948 47.4219 60.4062C43.9062 62.5417 39.8828 63.7396 35.3516 64H10.4688L10.3125 6.57812H30.2344ZM32.7734 46.3047C34.4922 46.2005 36.0417 45.7318 37.4219 44.8984C38.5938 44.1432 39.6484 43.0234 40.5859 41.5391C41.5234 40.0286 41.9661 37.8672 41.9141 35.0547C41.862 32.4245 41.4453 30.3932 40.6641 28.9609C39.8828 27.5286 39.0365 26.4609 38.125 25.7578C37.0573 24.9505 35.8594 24.4688 34.5312 24.3125L28.0469 24.3906L28.2812 46.3047H32.7734Z" fill="black"/>
<path d="M173.32 51.4219V64H155.508V6.57812H196.68V23.0234H173.32V38.4141H193.008V51.4219H173.32Z" fill="black"/>
<path d="M115.156 6.57812L138.438 64H117.227L115 56.9688L96.5234 57.0469L93.8672 64H72.6953L95.0781 6.57812H114.609H115.156ZM99.8828 45.5234L110.82 45.4453L105.234 30.875L99.8828 45.5234Z" fill="white"/>
<path d="M243.32 51.4219V64H225.508V6.57812H266.68V23.0234H243.32V38.4141H263.008V51.4219H243.32Z" fill="white"/>
<rect y="70" width="70" height="70" fill="black"/>
<rect x="140" y="70" width="70" height="70" fill="black"/>
<rect x="70" y="70" width="70" height="70" fill="white"/>
<path d="M30.2344 76.5781C30.9635 76.5781 32.1745 76.6172 33.8672 76.6953C35.5859 76.7734 37.526 77.0859 39.6875 77.6328C41.849 78.1536 44.0755 79 46.3672 80.1719C48.6589 81.3438 50.7682 82.9974 52.6953 85.1328C54.6224 87.2682 56.1979 89.9766 57.4219 93.2578C58.6458 96.513 59.2839 100.549 59.3359 105.367C59.3359 108.935 58.9974 112.086 58.3203 114.82C57.6693 117.529 56.7839 119.885 55.6641 121.891C54.5443 123.896 53.2552 125.589 51.7969 126.969C50.3646 128.349 48.9062 129.495 47.4219 130.406C43.9062 132.542 39.8828 133.74 35.3516 134H10.4688L10.3125 76.5781H30.2344ZM32.7734 116.305C34.4922 116.201 36.0417 115.732 37.4219 114.898C38.5938 114.143 39.6484 113.023 40.5859 111.539C41.5234 110.029 41.9661 107.867 41.9141 105.055C41.862 102.424 41.4453 100.393 40.6641 98.9609C39.8828 97.5286 39.0365 96.4609 38.125 95.7578C37.0573 94.9505 35.8594 94.4688 34.5312 94.3125L28.0469 94.3906L28.2812 116.305H32.7734Z" fill="white"/>
<path d="M201.914 121.773C199.232 125.914 195.69 129.247 191.289 131.773C186.888 134.273 182.018 135.523 176.68 135.523C172.539 135.523 168.646 134.742 165 133.18C161.38 131.591 158.216 129.443 155.508 126.734C152.826 124 150.703 120.823 149.141 117.203C147.578 113.583 146.797 109.69 146.797 105.523C146.797 101.357 147.578 97.4635 149.141 93.8438C150.703 90.224 152.826 87.0729 155.508 84.3906C158.216 81.6823 161.38 79.5469 165 77.9844C168.646 76.3958 172.539 75.6016 176.68 75.6016C179.727 75.6016 182.643 76.0312 185.43 76.8906C188.242 77.724 190.82 78.9219 193.164 80.4844C195.508 82.0208 197.617 83.8698 199.492 86.0312C201.367 88.1927 202.891 90.5885 204.062 93.2188L188.125 100.328C187.109 98.0885 185.586 96.3047 183.555 94.9766C181.549 93.6224 179.258 92.9453 176.68 92.9453C174.935 92.9453 173.294 93.2839 171.758 93.9609C170.247 94.638 168.932 95.5365 167.812 96.6562C166.693 97.776 165.794 99.0911 165.117 100.602C164.466 102.112 164.141 103.753 164.141 105.523C164.141 107.268 164.466 108.909 165.117 110.445C165.794 111.956 166.693 113.284 167.812 114.43C168.932 115.576 170.247 116.487 171.758 117.164C173.294 117.815 174.935 118.141 176.68 118.141C179.102 118.141 181.289 117.529 183.242 116.305C185.221 115.081 186.745 113.492 187.812 111.539L201.914 121.773Z" fill="white"/>
<path d="M99.8828 76.4609L100.352 108.727C100.352 109.638 100.417 110.523 100.547 111.383C100.677 112.216 100.924 112.958 101.289 113.609C101.68 114.234 102.214 114.755 102.891 115.172C103.594 115.562 104.531 115.758 105.703 115.758C107.031 115.758 108.06 115.471 108.789 114.898C109.518 114.299 110.013 113.622 110.273 112.867C110.586 112.034 110.742 111.083 110.742 110.016L110.273 76.5781H127.773C127.826 83.1146 127.904 89.0521 128.008 94.3906C128.008 96.6823 128.021 98.9479 128.047 101.188C128.073 103.427 128.099 105.471 128.125 107.32C128.177 109.169 128.216 110.745 128.242 112.047C128.268 113.349 128.281 114.182 128.281 114.547C128.281 115.042 128.281 115.862 128.281 117.008C128.281 118.154 128.086 119.443 127.695 120.875C127.331 122.307 126.706 123.792 125.82 125.328C124.935 126.839 123.633 128.232 121.914 129.508C120.221 130.784 118.021 131.852 115.312 132.711C112.63 133.57 109.297 134.026 105.312 134.078C102.318 134.13 99.6875 133.948 97.4219 133.531C95.1562 133.089 93.2031 132.503 91.5625 131.773C89.9479 131.018 88.5938 130.159 87.5 129.195C86.4062 128.232 85.5469 127.242 84.9219 126.227C83.3073 123.883 82.526 121.161 82.5781 118.062L82.0312 76.5781H99.8828V76.4609Z" fill="black"/>
<rect x="210" y="70" width="70" height="70" fill="white"/>
<path d="M271.914 76.5781L247.891 105.211L272.07 134H252.695L239.492 118.258V134H222.383V76.5781H239.492V92.1641L252.539 76.5781H271.328H271.914Z" fill="black"/>
<rect x="280" width="70" height="70" fill="white"/>
<path d="M328.477 6.57812H347.852L325.469 48.7266V64H305.469V48.7266L282.109 6.57812H302.5L315.391 30.3281L327.773 6.57812H328.477Z" fill="black"/>
</svg>
