<svg width="420" height="70" viewBox="0 0 420 70" fill="none" xmlns="http://www.w3.org/2000/svg">
<rect width="70" height="70" fill="white"/>
<rect x="70" width="70" height="70" fill="black"/>
<rect x="140" width="70" height="70" fill="white"/>
<rect x="210" width="70" height="70" fill="black"/>
<rect x="350" width="70" height="70" fill="black"/>
<path d="M413.359 64H391.25L381.602 47.0469H379.57L379.844 64H361.25L360.781 6.57812H392.07C395.482 6.78646 398.542 7.63281 401.25 9.11719C402.448 9.76823 403.581 10.5885 404.648 11.5781C405.742 12.5417 406.732 13.7526 407.617 15.2109C408.503 16.6432 409.206 18.3359 409.727 20.2891C410.273 22.2422 410.573 24.4948 410.625 27.0469C410.833 29.4427 410.651 31.7344 410.078 33.9219C409.792 34.8854 409.427 35.862 408.984 36.8516C408.542 37.8411 407.943 38.7917 407.188 39.7031C406.432 40.5885 405.521 41.4479 404.453 42.2812C403.385 43.1146 402.135 43.8177 400.703 44.3906L413.359 64ZM389.766 31.6172C390.495 31.6172 391.159 31.474 391.758 31.1875C392.227 30.9271 392.656 30.5495 393.047 30.0547C393.464 29.5339 393.672 28.7396 393.672 27.6719C393.62 26.6562 393.372 25.901 392.93 25.4062C392.513 24.8854 392.044 24.4948 391.523 24.2344C390.924 23.974 390.221 23.8438 389.414 23.8438L379.258 23.9219L379.336 31.6172H389.766Z" fill="white"/>
<path d="M33.3203 51.4219V64H15.5078V6.57812H56.6797V23.0234H33.3203V38.4141H53.0078V51.4219H33.3203Z" fill="black"/>
<path d="M194.844 6.57812V20.6406H183.164L183.75 64H165.898L165.312 20.6406H152.695V6.57812H194.453H194.844Z" fill="black"/>
<path d="M115.156 6.57812L138.438 64H117.227L115 56.9688L96.5234 57.0469L93.8672 64H72.6953L95.0781 6.57812H114.609H115.156ZM99.8828 45.5234L110.82 45.4453L105.234 30.875L99.8828 45.5234Z" fill="white"/>
<path d="M250.156 6.57812H270.156V64H250.156V46.4609H238.398V64H218.398V6.57812H238.398V28.1406H250.156V7.04688V6.57812Z" fill="white"/>
<rect x="280" width="70" height="70" fill="white"/>
<path d="M337.07 21.2656H313.711V28.2578H334.297V40.6406H313.711V48.2578H337.07V64H295.898V6.57812H337.07V21.2656Z" fill="black"/>
</svg>
