<svg width="280" height="70" viewBox="0 0 280 70" fill="none" xmlns="http://www.w3.org/2000/svg">
<rect width="70" height="70" fill="white"/>
<rect x="70" width="70" height="70" fill="black"/>
<rect x="140" width="70" height="70" fill="white"/>
<rect x="210" width="70" height="70" fill="black"/>
<path d="M34.2969 38.8047H61.3281V64H56.4453L54.375 59.3516C51.7969 61.2786 48.9714 62.7891 45.8984 63.8828C42.8516 64.9766 39.5964 65.5234 36.1328 65.5234C31.9661 65.5234 28.0599 64.7422 24.4141 63.1797C20.7943 61.5911 17.6432 59.4427 14.9609 56.7344C12.2786 54 10.1432 50.8229 8.55469 47.2031C6.99219 43.5833 6.21094 39.6901 6.21094 35.5234C6.21094 31.3568 6.99219 27.4635 8.55469 23.8438C10.1432 20.224 12.2786 17.0729 14.9609 14.3906C17.6432 11.6823 20.7943 9.54688 24.4141 7.98438C28.0599 6.39583 31.9661 5.60156 36.1328 5.60156C39.1536 5.60156 42.0573 6.03125 44.8438 6.89062C47.6562 7.72396 50.2344 8.92188 52.5781 10.4844C54.9479 12.0208 57.0573 13.8698 58.9062 16.0312C60.7812 18.1927 62.3047 20.5885 63.4766 23.2188L47.5781 30.3281C46.5625 28.0885 45.0391 26.3047 43.0078 24.9766C40.9766 23.6224 38.6849 22.9453 36.1328 22.9453C34.362 22.9453 32.6953 23.2578 31.1328 23.8828C29.5964 24.4818 28.2422 25.3281 27.0703 26.4219C25.8984 27.5156 24.9349 28.8438 24.1797 30.4062C23.4505 31.9427 23.0078 33.6484 22.8516 35.5234C22.6432 37.9714 22.8906 40.0677 23.5938 41.8125C24.3229 43.5312 25.3255 44.9505 26.6016 46.0703C27.8776 47.1901 29.3229 48.0104 30.9375 48.5312C32.5781 49.026 34.2578 49.2734 35.9766 49.2734C37.9297 49.2734 39.6354 49.0781 41.0938 48.6875C42.5781 48.2708 43.8802 47.724 45 47.0469L34.2969 43.9219V38.8047Z" fill="black"/>
<path d="M183.555 64H165.547L165.703 6.57812H183.477L183.555 64Z" fill="black"/>
<path d="M133.359 64H111.25L101.602 47.0469H99.5703L99.8438 64H81.25L80.7812 6.57812H112.07C115.482 6.78646 118.542 7.63281 121.25 9.11719C122.448 9.76823 123.581 10.5885 124.648 11.5781C125.742 12.5417 126.732 13.7526 127.617 15.2109C128.503 16.6432 129.206 18.3359 129.727 20.2891C130.273 22.2422 130.573 24.4948 130.625 27.0469C130.833 29.4427 130.651 31.7344 130.078 33.9219C129.792 34.8854 129.427 35.862 128.984 36.8516C128.542 37.8411 127.943 38.7917 127.188 39.7031C126.432 40.5885 125.521 41.4479 124.453 42.2812C123.385 43.1146 122.135 43.8177 120.703 44.3906L133.359 64ZM109.766 31.6172C110.495 31.6172 111.159 31.474 111.758 31.1875C112.227 30.9271 112.656 30.5495 113.047 30.0547C113.464 29.5339 113.672 28.7396 113.672 27.6719C113.62 26.6562 113.372 25.901 112.93 25.4062C112.513 24.8854 112.044 24.4948 111.523 24.2344C110.924 23.974 110.221 23.8438 109.414 23.8438L99.2578 23.9219L99.3359 31.6172H109.766Z" fill="white"/>
<path d="M217.791 61.8647L217.095 9.16699H233.684L244.487 27.5142L253.167 9.16699H272.356L273.125 63H254.814L254.595 42.5288H253.459L245 59.1182L236.211 42.5288L235.112 42.6021L235.332 63H217.791V61.8647Z" fill="white"/>
</svg>
