<svg width="280" height="140" viewBox="0 0 280 140" fill="none" xmlns="http://www.w3.org/2000/svg">
<rect width="70" height="70" fill="white"/>
<rect x="70" width="70" height="70" fill="black"/>
<rect x="140" width="70" height="70" fill="white"/>
<path d="M43.5547 64H25.5469L25.7031 6.57812H43.4766L43.5547 64Z" fill="black"/>
<path d="M197.07 21.2656H173.711V28.2578H194.297V40.6406H173.711V48.2578H197.07V64H155.898V6.57812H197.07V21.2656Z" fill="black"/>
<path d="M131.914 51.7734C129.232 55.9141 125.69 59.2474 121.289 61.7734C116.888 64.2734 112.018 65.5234 106.68 65.5234C102.539 65.5234 98.6458 64.7422 95 63.1797C91.3802 61.5911 88.2161 59.4427 85.5078 56.7344C82.8255 54 80.7031 50.8229 79.1406 47.2031C77.5781 43.5833 76.7969 39.6901 76.7969 35.5234C76.7969 31.3568 77.5781 27.4635 79.1406 23.8438C80.7031 20.224 82.8255 17.0729 85.5078 14.3906C88.2161 11.6823 91.3802 9.54688 95 7.98438C98.6458 6.39583 102.539 5.60156 106.68 5.60156C109.727 5.60156 112.643 6.03125 115.43 6.89062C118.242 7.72396 120.82 8.92188 123.164 10.4844C125.508 12.0208 127.617 13.8698 129.492 16.0312C131.367 18.1927 132.891 20.5885 134.062 23.2188L118.125 30.3281C117.109 28.0885 115.586 26.3047 113.555 24.9766C111.549 23.6224 109.258 22.9453 106.68 22.9453C104.935 22.9453 103.294 23.2839 101.758 23.9609C100.247 24.638 98.9323 25.5365 97.8125 26.6562C96.6927 27.776 95.7943 29.0911 95.1172 30.6016C94.4661 32.112 94.1406 33.7526 94.1406 35.5234C94.1406 37.2682 94.4661 38.9089 95.1172 40.4453C95.7943 41.9557 96.6927 43.2839 97.8125 44.4297C98.9323 45.5755 100.247 46.487 101.758 47.1641C103.294 47.8151 104.935 48.1406 106.68 48.1406C109.102 48.1406 111.289 47.5286 113.242 46.3047C115.221 45.0807 116.745 43.4922 117.812 41.5391L131.914 51.7734Z" fill="white"/>
<rect y="70" width="70" height="70" fill="black"/>
<rect x="140" y="70" width="70" height="70" fill="black"/>
<rect x="70" y="70" width="70" height="70" fill="white"/>
<rect x="210" y="70" width="70" height="70" fill="white"/>
<path d="M61.9141 76.5781L37.8906 105.211L62.0703 134H42.6953L29.4922 118.258V134H12.3828V76.5781H29.4922V92.1641L42.5391 76.5781H61.3281H61.9141Z" fill="white"/>
<path d="M185.859 76.5781H205.625V134H185.547L164.18 107.047V134H145.625V76.5781H166.562L185.859 100.328V76.5781Z" fill="white"/>
<path d="M113.555 134H95.5469L95.7031 76.5781H113.477L113.555 134Z" fill="black"/>
<path d="M244.297 108.805H271.328V134H266.445L264.375 129.352C261.797 131.279 258.971 132.789 255.898 133.883C252.852 134.977 249.596 135.523 246.133 135.523C241.966 135.523 238.06 134.742 234.414 133.18C230.794 131.591 227.643 129.443 224.961 126.734C222.279 124 220.143 120.823 218.555 117.203C216.992 113.583 216.211 109.69 216.211 105.523C216.211 101.357 216.992 97.4635 218.555 93.8438C220.143 90.224 222.279 87.0729 224.961 84.3906C227.643 81.6823 230.794 79.5469 234.414 77.9844C238.06 76.3958 241.966 75.6016 246.133 75.6016C249.154 75.6016 252.057 76.0312 254.844 76.8906C257.656 77.724 260.234 78.9219 262.578 80.4844C264.948 82.0208 267.057 83.8698 268.906 86.0312C270.781 88.1927 272.305 90.5885 273.477 93.2188L257.578 100.328C256.562 98.0885 255.039 96.3047 253.008 94.9766C250.977 93.6224 248.685 92.9453 246.133 92.9453C244.362 92.9453 242.695 93.2578 241.133 93.8828C239.596 94.4818 238.242 95.3281 237.07 96.4219C235.898 97.5156 234.935 98.8438 234.18 100.406C233.451 101.943 233.008 103.648 232.852 105.523C232.643 107.971 232.891 110.068 233.594 111.812C234.323 113.531 235.326 114.951 236.602 116.07C237.878 117.19 239.323 118.01 240.938 118.531C242.578 119.026 244.258 119.273 245.977 119.273C247.93 119.273 249.635 119.078 251.094 118.688C252.578 118.271 253.88 117.724 255 117.047L244.297 113.922V108.805Z" fill="black"/>
</svg>
