<svg width="280" height="70" viewBox="0 0 280 70" fill="none" xmlns="http://www.w3.org/2000/svg">
<rect width="70" height="70" fill="white"/>
<rect x="70" width="70" height="70" fill="black"/>
<rect x="140" width="70" height="70" fill="white"/>
<rect x="210" width="70" height="70" fill="black"/>
<path d="M61.9141 6.57812L37.8906 35.2109L62.0703 64H42.6953L29.4922 48.2578V64H12.3828V6.57812H29.4922V22.1641L42.5391 6.57812H61.3281H61.9141Z" fill="black"/>
<path d="M194.844 6.57812V20.6406H183.164L183.75 64H165.898L165.312 20.6406H152.695V6.57812H194.453H194.844Z" fill="black"/>
<path d="M115.156 6.57812L138.438 64H117.227L115 56.9688L96.5234 57.0469L93.8672 64H72.6953L95.0781 6.57812H114.609H115.156ZM99.8828 45.5234L110.82 45.4453L105.234 30.875L99.8828 45.5234Z" fill="white"/>
<path d="M252.5 38.1406L246.836 49.9375H266.328V64H221.055L234.57 38.1406L237.148 33.2969L243.867 20.4844H222.5V6.57812H267.695L254.805 33.2969L252.5 38.1406Z" fill="white"/>
</svg>
