<svg width="351" height="70" viewBox="0 0 351 70" fill="none" xmlns="http://www.w3.org/2000/svg">
<rect width="70" height="70" fill="white"/>
<rect x="70" width="70" height="70" fill="black"/>
<rect x="140" width="70" height="70" fill="white"/>
<rect x="210" width="70" height="70" fill="black"/>
<path d="M5.97656 62.7891L5.23438 6.57812H22.9297L34.4531 26.1484L43.7109 6.57812H64.1797L65 64H45.4688L45.2344 42.1641H44.0234L35 59.8594L25.625 42.1641L24.4531 42.2422L24.6875 64H5.97656V62.7891Z" fill="black"/>
<path d="M185.859 6.57812H205.625V64H185.547L164.18 37.0469V64H145.625V6.57812H166.562L185.859 30.3281V6.57812Z" fill="black"/>
<path d="M115.156 6.57812L138.438 64H117.227L115 56.9688L96.5234 57.0469L93.8672 64H72.6953L95.0781 6.57812H114.609H115.156ZM99.8828 45.5234L110.82 45.4453L105.234 30.875L99.8828 45.5234Z" fill="white"/>
<path d="M240.234 6.57812C240.964 6.57812 242.174 6.61719 243.867 6.69531C245.586 6.77344 247.526 7.08594 249.688 7.63281C251.849 8.15365 254.076 9 256.367 10.1719C258.659 11.3438 260.768 12.9974 262.695 15.1328C264.622 17.2682 266.198 19.9766 267.422 23.2578C268.646 26.513 269.284 30.5495 269.336 35.3672C269.336 38.9349 268.997 42.0859 268.32 44.8203C267.669 47.5286 266.784 49.8854 265.664 51.8906C264.544 53.8958 263.255 55.5885 261.797 56.9688C260.365 58.349 258.906 59.4948 257.422 60.4062C253.906 62.5417 249.883 63.7396 245.352 64H220.469L220.312 6.57812H240.234ZM242.773 46.3047C244.492 46.2005 246.042 45.7318 247.422 44.8984C248.594 44.1432 249.648 43.0234 250.586 41.5391C251.523 40.0286 251.966 37.8672 251.914 35.0547C251.862 32.4245 251.445 30.3932 250.664 28.9609C249.883 27.5286 249.036 26.4609 248.125 25.7578C247.057 24.9505 245.859 24.4688 244.531 24.3125L238.047 24.3906L238.281 46.3047H242.773Z" fill="white"/>
<rect x="280" width="70" height="70" fill="white"/>
<path d="M328.477 6.57812H347.852L325.469 48.7266V64H305.469V48.7266L282.109 6.57812H302.5L315.391 30.3281L327.773 6.57812H328.477Z" fill="black"/>
</svg>
