<svg width="280" height="140" viewBox="0 0 280 140" fill="none" xmlns="http://www.w3.org/2000/svg">
<rect width="70" height="70" fill="white"/>
<rect x="70" width="70" height="70" fill="black"/>
<rect x="140" width="70" height="70" fill="white"/>
<rect x="210" width="70" height="70" fill="black"/>
<path d="M5.97656 62.7891L5.23438 6.57812H22.9297L34.4531 26.1484L43.7109 6.57812H64.1797L65 64H45.4688L45.2344 42.1641H44.0234L35 59.8594L25.625 42.1641L24.4531 42.2422L24.6875 64H5.97656V62.7891Z" fill="black"/>
<path d="M187.852 44.4688C187.852 44.9635 187.852 45.7969 187.852 46.9688C187.852 48.1406 187.656 49.4427 187.266 50.875C186.901 52.3073 186.276 53.8047 185.391 55.3672C184.505 56.9036 183.203 58.3229 181.484 59.625C179.792 60.901 177.591 61.9557 174.883 62.7891C172.201 63.5964 168.867 64 164.883 64C164.18 64 163.62 63.9479 163.203 63.8438C162.786 63.7396 162.435 63.6094 162.148 63.4531C161.836 63.2188 161.576 62.9974 161.367 62.7891V44.9766C161.732 45.1849 162.24 45.3542 162.891 45.4844C163.568 45.6146 164.362 45.6797 165.273 45.6797C166.602 45.6797 167.63 45.3932 168.359 44.8203C169.089 44.2214 169.583 43.5443 169.844 42.7891C170.156 41.9557 170.312 41.0052 170.312 39.9375L169.922 6.57812H187.344C187.396 13.1146 187.487 19.0521 187.617 24.3906C187.617 26.6823 187.63 28.9479 187.656 31.1875C187.682 33.4271 187.708 35.4714 187.734 37.3203C187.76 39.1693 187.786 40.7318 187.812 42.0078C187.839 43.2839 187.852 44.1042 187.852 44.4688Z" fill="black"/>
<path d="M105.547 5.75781C109.714 5.75781 113.607 6.55208 117.227 8.14062C120.846 9.70312 124.01 11.8516 126.719 14.5859C129.453 17.2943 131.602 20.4583 133.164 24.0781C134.753 27.6979 135.547 31.5911 135.547 35.7578C135.547 39.9245 134.753 43.8177 133.164 47.4375C131.602 51.0573 129.453 54.2344 126.719 56.9688C124.01 59.6771 120.846 61.8255 117.227 63.4141C113.607 64.9766 109.714 65.7578 105.547 65.7578C101.38 65.7578 97.487 64.9766 93.8672 63.4141C90.2474 61.8255 87.0703 59.6771 84.3359 56.9688C81.6276 54.2344 79.4792 51.0573 77.8906 47.4375C76.3281 43.8177 75.5469 39.9245 75.5469 35.7578C75.5469 31.5911 76.3281 27.6979 77.8906 24.0781C79.4792 20.4583 81.6276 17.2943 84.3359 14.5859C87.0703 11.8516 90.2474 9.70312 93.8672 8.14062C97.487 6.55208 101.38 5.75781 105.547 5.75781ZM105.547 48.4141C107.318 48.4141 108.958 48.0755 110.469 47.3984C111.979 46.7214 113.307 45.8099 114.453 44.6641C115.599 43.5182 116.51 42.1901 117.188 40.6797C117.865 39.1693 118.203 37.5286 118.203 35.7578C118.203 33.987 117.865 32.3464 117.188 30.8359C116.51 29.3255 115.599 27.9974 114.453 26.8516C113.307 25.7057 111.979 24.7943 110.469 24.1172C108.958 23.4401 107.318 23.1016 105.547 23.1016C103.776 23.1016 102.135 23.4401 100.625 24.1172C99.1146 24.7943 97.7995 25.7057 96.6797 26.8516C95.5599 27.9974 94.6615 29.3255 93.9844 30.8359C93.3073 32.3464 92.9688 33.987 92.9688 35.7578C92.9688 37.5286 93.3073 39.1693 93.9844 40.6797C94.6615 42.1901 95.5599 43.5182 96.6797 44.6641C97.7995 45.8099 99.1146 46.7214 100.625 47.3984C102.135 48.0755 103.776 48.4141 105.547 48.4141Z" fill="white"/>
<path d="M245.547 5.75781C249.714 5.75781 253.607 6.55208 257.227 8.14062C260.846 9.70312 264.01 11.8516 266.719 14.5859C269.453 17.2943 271.602 20.4583 273.164 24.0781C274.753 27.6979 275.547 31.5911 275.547 35.7578C275.547 39.9245 274.753 43.8177 273.164 47.4375C271.602 51.0573 269.453 54.2344 266.719 56.9688C264.01 59.6771 260.846 61.8255 257.227 63.4141C253.607 64.9766 249.714 65.7578 245.547 65.7578C241.38 65.7578 237.487 64.9766 233.867 63.4141C230.247 61.8255 227.07 59.6771 224.336 56.9688C221.628 54.2344 219.479 51.0573 217.891 47.4375C216.328 43.8177 215.547 39.9245 215.547 35.7578C215.547 31.5911 216.328 27.6979 217.891 24.0781C219.479 20.4583 221.628 17.2943 224.336 14.5859C227.07 11.8516 230.247 9.70312 233.867 8.14062C237.487 6.55208 241.38 5.75781 245.547 5.75781ZM245.547 48.4141C247.318 48.4141 248.958 48.0755 250.469 47.3984C251.979 46.7214 253.307 45.8099 254.453 44.6641C255.599 43.5182 256.51 42.1901 257.188 40.6797C257.865 39.1693 258.203 37.5286 258.203 35.7578C258.203 33.987 257.865 32.3464 257.188 30.8359C256.51 29.3255 255.599 27.9974 254.453 26.8516C253.307 25.7057 251.979 24.7943 250.469 24.1172C248.958 23.4401 247.318 23.1016 245.547 23.1016C243.776 23.1016 242.135 23.4401 240.625 24.1172C239.115 24.7943 237.799 25.7057 236.68 26.8516C235.56 27.9974 234.661 29.3255 233.984 30.8359C233.307 32.3464 232.969 33.987 232.969 35.7578C232.969 37.5286 233.307 39.1693 233.984 40.6797C234.661 42.1901 235.56 43.5182 236.68 44.6641C237.799 45.8099 239.115 46.7214 240.625 47.3984C242.135 48.0755 243.776 48.4141 245.547 48.4141Z" fill="white"/>
<rect y="70" width="70" height="70" fill="black"/>
<rect x="140" y="70" width="70" height="70" fill="black"/>
<rect x="70" y="70" width="70" height="70" fill="white"/>
<rect x="210" y="70" width="70" height="70" fill="white"/>
<path d="M47.8516 114.469C47.8516 114.964 47.8516 115.797 47.8516 116.969C47.8516 118.141 47.6562 119.443 47.2656 120.875C46.901 122.307 46.276 123.805 45.3906 125.367C44.5052 126.904 43.2031 128.323 41.4844 129.625C39.7917 130.901 37.5911 131.956 34.8828 132.789C32.2005 133.596 28.8672 134 24.8828 134C24.1797 134 23.6198 133.948 23.2031 133.844C22.7865 133.74 22.4349 133.609 22.1484 133.453C21.8359 133.219 21.5755 132.997 21.3672 132.789V114.977C21.7318 115.185 22.2396 115.354 22.8906 115.484C23.5677 115.615 24.362 115.68 25.2734 115.68C26.6016 115.68 27.6302 115.393 28.3594 114.82C29.0885 114.221 29.5833 113.544 29.8438 112.789C30.1562 111.956 30.3125 111.005 30.3125 109.938L29.9219 76.5781H47.3438C47.3958 83.1146 47.487 89.0521 47.6172 94.3906C47.6172 96.6823 47.6302 98.9479 47.6562 101.188C47.6823 103.427 47.7083 105.471 47.7344 107.32C47.7604 109.169 47.7865 110.732 47.8125 112.008C47.8385 113.284 47.8516 114.104 47.8516 114.469Z" fill="white"/>
<path d="M187.852 114.469C187.852 114.964 187.852 115.797 187.852 116.969C187.852 118.141 187.656 119.443 187.266 120.875C186.901 122.307 186.276 123.805 185.391 125.367C184.505 126.904 183.203 128.323 181.484 129.625C179.792 130.901 177.591 131.956 174.883 132.789C172.201 133.596 168.867 134 164.883 134C164.18 134 163.62 133.948 163.203 133.844C162.786 133.74 162.435 133.609 162.148 133.453C161.836 133.219 161.576 132.997 161.367 132.789V114.977C161.732 115.185 162.24 115.354 162.891 115.484C163.568 115.615 164.362 115.68 165.273 115.68C166.602 115.68 167.63 115.393 168.359 114.82C169.089 114.221 169.583 113.544 169.844 112.789C170.156 111.956 170.312 111.005 170.312 109.938L169.922 76.5781H187.344C187.396 83.1146 187.487 89.0521 187.617 94.3906C187.617 96.6823 187.63 98.9479 187.656 101.188C187.682 103.427 187.708 105.471 187.734 107.32C187.76 109.169 187.786 110.732 187.812 112.008C187.839 113.284 187.852 114.104 187.852 114.469Z" fill="white"/>
<path d="M105.547 75.7578C109.714 75.7578 113.607 76.5521 117.227 78.1406C120.846 79.7031 124.01 81.8516 126.719 84.5859C129.453 87.2943 131.602 90.4583 133.164 94.0781C134.753 97.6979 135.547 101.591 135.547 105.758C135.547 109.924 134.753 113.818 133.164 117.438C131.602 121.057 129.453 124.234 126.719 126.969C124.01 129.677 120.846 131.826 117.227 133.414C113.607 134.977 109.714 135.758 105.547 135.758C101.38 135.758 97.487 134.977 93.8672 133.414C90.2474 131.826 87.0703 129.677 84.3359 126.969C81.6276 124.234 79.4792 121.057 77.8906 117.438C76.3281 113.818 75.5469 109.924 75.5469 105.758C75.5469 101.591 76.3281 97.6979 77.8906 94.0781C79.4792 90.4583 81.6276 87.2943 84.3359 84.5859C87.0703 81.8516 90.2474 79.7031 93.8672 78.1406C97.487 76.5521 101.38 75.7578 105.547 75.7578ZM105.547 118.414C107.318 118.414 108.958 118.076 110.469 117.398C111.979 116.721 113.307 115.81 114.453 114.664C115.599 113.518 116.51 112.19 117.188 110.68C117.865 109.169 118.203 107.529 118.203 105.758C118.203 103.987 117.865 102.346 117.188 100.836C116.51 99.3255 115.599 97.9974 114.453 96.8516C113.307 95.7057 111.979 94.7943 110.469 94.1172C108.958 93.4401 107.318 93.1016 105.547 93.1016C103.776 93.1016 102.135 93.4401 100.625 94.1172C99.1146 94.7943 97.7995 95.7057 96.6797 96.8516C95.5599 97.9974 94.6615 99.3255 93.9844 100.836C93.3073 102.346 92.9688 103.987 92.9688 105.758C92.9688 107.529 93.3073 109.169 93.9844 110.68C94.6615 112.19 95.5599 113.518 96.6797 114.664C97.7995 115.81 99.1146 116.721 100.625 117.398C102.135 118.076 103.776 118.414 105.547 118.414Z" fill="black"/>
<path d="M245.547 75.7578C249.714 75.7578 253.607 76.5521 257.227 78.1406C260.846 79.7031 264.01 81.8516 266.719 84.5859C269.453 87.2943 271.602 90.4583 273.164 94.0781C274.753 97.6979 275.547 101.591 275.547 105.758C275.547 109.924 274.753 113.818 273.164 117.438C271.602 121.057 269.453 124.234 266.719 126.969C264.01 129.677 260.846 131.826 257.227 133.414C253.607 134.977 249.714 135.758 245.547 135.758C241.38 135.758 237.487 134.977 233.867 133.414C230.247 131.826 227.07 129.677 224.336 126.969C221.628 124.234 219.479 121.057 217.891 117.438C216.328 113.818 215.547 109.924 215.547 105.758C215.547 101.591 216.328 97.6979 217.891 94.0781C219.479 90.4583 221.628 87.2943 224.336 84.5859C227.07 81.8516 230.247 79.7031 233.867 78.1406C237.487 76.5521 241.38 75.7578 245.547 75.7578ZM245.547 118.414C247.318 118.414 248.958 118.076 250.469 117.398C251.979 116.721 253.307 115.81 254.453 114.664C255.599 113.518 256.51 112.19 257.188 110.68C257.865 109.169 258.203 107.529 258.203 105.758C258.203 103.987 257.865 102.346 257.188 100.836C256.51 99.3255 255.599 97.9974 254.453 96.8516C253.307 95.7057 251.979 94.7943 250.469 94.1172C248.958 93.4401 247.318 93.1016 245.547 93.1016C243.776 93.1016 242.135 93.4401 240.625 94.1172C239.115 94.7943 237.799 95.7057 236.68 96.8516C235.56 97.9974 234.661 99.3255 233.984 100.836C233.307 102.346 232.969 103.987 232.969 105.758C232.969 107.529 233.307 109.169 233.984 110.68C234.661 112.19 235.56 113.518 236.68 114.664C237.799 115.81 239.115 116.721 240.625 117.398C242.135 118.076 243.776 118.414 245.547 118.414Z" fill="black"/>
</svg>
