<svg width="491" height="70" viewBox="0 0 491 70" fill="none" xmlns="http://www.w3.org/2000/svg">
<rect width="70" height="70" fill="white"/>
<rect x="70" width="70" height="70" fill="black"/>
<rect x="140" width="70" height="70" fill="white"/>
<rect x="210" width="70" height="70" fill="black"/>
<rect x="350" width="70" height="70" fill="black"/>
<path d="M378.594 64H360.664L359.961 6.57812H391.211C395.169 6.78646 398.698 7.71094 401.797 9.35156C403.125 10.1068 404.414 11.0312 405.664 12.125C406.914 13.2188 408.034 14.5859 409.023 16.2266C410.013 17.8411 410.807 19.7422 411.406 21.9297C412.031 24.1172 412.344 26.6693 412.344 29.5859C412.448 32.7891 412.148 35.862 411.445 38.8047C411.133 40.0286 410.703 41.2786 410.156 42.5547C409.635 43.8307 408.958 45.0547 408.125 46.2266C407.318 47.3984 406.341 48.4661 405.195 49.4297C404.049 50.3932 402.669 51.2005 401.055 51.8516C400.326 52.112 398.932 52.5286 396.875 53.1016C394.818 53.6484 391.888 53.9219 388.086 53.9219H378.75L378.594 64ZM378.594 36.4609L388.906 36.3828C390.182 36.3307 391.328 36.0182 392.344 35.4453C393.255 34.8984 394.062 34.0781 394.766 32.9844C395.495 31.8906 395.859 30.224 395.859 27.9844C395.859 26.2396 395.469 24.9245 394.688 24.0391C393.932 23.1536 393.099 22.5026 392.188 22.0859C391.12 21.6432 389.922 21.4219 388.594 21.4219L378.516 21.5391L378.594 36.4609Z" fill="white"/>
<path d="M55.4297 39.2734C55.8984 40.3411 56.3281 41.7214 56.7188 43.4141C57.1354 45.0807 57.1875 46.9297 56.875 48.9609C56.5885 50.9922 55.7943 53.1146 54.4922 55.3281C53.1901 57.5417 51.0417 59.7161 48.0469 61.8516C47.8385 62.0078 47.6432 62.151 47.4609 62.2812C47.2786 62.4115 47.0833 62.5286 46.875 62.6328C46.5365 62.8411 46.237 63.0234 45.9766 63.1797C45.7161 63.3099 45.4557 63.4271 45.1953 63.5312C44.9089 63.6354 44.6484 63.7266 44.4141 63.8047C44.1797 63.8828 43.9323 63.974 43.6719 64.0781C40.6771 65.0417 37.5781 65.5234 34.375 65.5234C29.9479 65.5234 25.8203 64.6641 21.9922 62.9453C18.1901 61.2005 14.9089 58.8047 12.1484 55.7578L22.5391 45.5234C23.6589 46.7995 24.9609 47.8802 26.4453 48.7656C27.9557 49.651 29.5573 50.25 31.25 50.5625C32.8646 50.8229 34.5182 50.7318 36.2109 50.2891C37.9297 49.8203 39.1016 49.0521 39.7266 47.9844C40.0651 47.4635 40.2344 47.0208 40.2344 46.6562C40.2344 46.2656 40.1432 45.9271 39.9609 45.6406C39.8047 45.3542 39.6224 45.1458 39.4141 45.0156C39.2057 44.8594 39.0755 44.7552 39.0234 44.7031C37.0964 43.974 35.1302 43.3099 33.125 42.7109C31.1458 42.0859 29.1927 41.4479 27.2656 40.7969C25.7031 40.276 24.2057 39.7422 22.7734 39.1953C21.3411 38.6224 20.013 37.9583 18.7891 37.2031C16.9661 36.0833 15.5208 34.7812 14.4531 33.2969L14.375 33.2188C14.1667 32.8802 13.9714 32.5547 13.7891 32.2422C13.6068 31.9297 13.4505 31.5781 13.3203 31.1875C12.8516 30.1198 12.3958 28.7526 11.9531 27.0859C11.5365 25.3932 11.4714 23.5443 11.7578 21.5391C12.0703 19.5078 12.8906 17.3724 14.2188 15.1328C15.5469 12.8932 17.7083 10.7057 20.7031 8.57031C21.276 8.1276 21.7839 7.78906 22.2266 7.55469C22.6953 7.32031 23.125 7.125 23.5156 6.96875H23.5938C23.8542 6.86458 24.0885 6.77344 24.2969 6.69531C24.5052 6.61719 24.7526 6.51302 25.0391 6.38281C27.9557 5.44531 31.0677 4.97656 34.375 4.97656C38.4375 4.97656 42.2526 5.70573 45.8203 7.16406C49.388 8.6224 52.5391 10.6667 55.2734 13.2969L44.7656 23.5312C43.0208 21.9167 40.9766 20.7969 38.6328 20.1719C38.5807 20.1719 38.5417 20.1589 38.5156 20.1328C38.4896 20.1068 38.4115 20.0938 38.2812 20.0938C37.5 19.8594 36.6406 19.7682 35.7031 19.8203C34.7656 19.8464 33.8672 19.9635 33.0078 20.1719C32.1745 20.3802 31.4062 20.6927 30.7031 21.1094C30 21.5 29.4661 21.9557 29.1016 22.4766C28.7891 23.0234 28.6328 23.4922 28.6328 23.8828C28.6328 24.2734 28.7109 24.612 28.8672 24.8984C29.0234 25.1589 29.2057 25.3672 29.4141 25.5234C29.6224 25.6797 29.7786 25.7578 29.8828 25.7578C31.4453 26.3568 33.0208 26.9036 34.6094 27.3984C36.224 27.8932 37.7995 28.4141 39.3359 28.9609C41.3151 29.5599 43.1901 30.2109 44.9609 30.9141C46.7578 31.5911 48.3984 32.3854 49.8828 33.2969C51.7578 34.4167 53.2292 35.7188 54.2969 37.2031C54.2969 37.2031 54.3229 37.2552 54.375 37.3594C54.6875 37.8281 55.0391 38.4661 55.4297 39.2734Z" fill="black"/>
<path d="M203.359 64H181.25L171.602 47.0469H169.57L169.844 64H151.25L150.781 6.57812H182.07C185.482 6.78646 188.542 7.63281 191.25 9.11719C192.448 9.76823 193.581 10.5885 194.648 11.5781C195.742 12.5417 196.732 13.7526 197.617 15.2109C198.503 16.6432 199.206 18.3359 199.727 20.2891C200.273 22.2422 200.573 24.4948 200.625 27.0469C200.833 29.4427 200.651 31.7344 200.078 33.9219C199.792 34.8854 199.427 35.862 198.984 36.8516C198.542 37.8411 197.943 38.7917 197.188 39.7031C196.432 40.5885 195.521 41.4479 194.453 42.2812C193.385 43.1146 192.135 43.8177 190.703 44.3906L203.359 64ZM179.766 31.6172C180.495 31.6172 181.159 31.474 181.758 31.1875C182.227 30.9271 182.656 30.5495 183.047 30.0547C183.464 29.5339 183.672 28.7396 183.672 27.6719C183.62 26.6562 183.372 25.901 182.93 25.4062C182.513 24.8854 182.044 24.4948 181.523 24.2344C180.924 23.974 180.221 23.8438 179.414 23.8438L169.258 23.9219L169.336 31.6172H179.766Z" fill="black"/>
<path d="M131.914 51.7734C129.232 55.9141 125.69 59.2474 121.289 61.7734C116.888 64.2734 112.018 65.5234 106.68 65.5234C102.539 65.5234 98.6458 64.7422 95 63.1797C91.3802 61.5911 88.2161 59.4427 85.5078 56.7344C82.8255 54 80.7031 50.8229 79.1406 47.2031C77.5781 43.5833 76.7969 39.6901 76.7969 35.5234C76.7969 31.3568 77.5781 27.4635 79.1406 23.8438C80.7031 20.224 82.8255 17.0729 85.5078 14.3906C88.2161 11.6823 91.3802 9.54688 95 7.98438C98.6458 6.39583 102.539 5.60156 106.68 5.60156C109.727 5.60156 112.643 6.03125 115.43 6.89062C118.242 7.72396 120.82 8.92188 123.164 10.4844C125.508 12.0208 127.617 13.8698 129.492 16.0312C131.367 18.1927 132.891 20.5885 134.062 23.2188L118.125 30.3281C117.109 28.0885 115.586 26.3047 113.555 24.9766C111.549 23.6224 109.258 22.9453 106.68 22.9453C104.935 22.9453 103.294 23.2839 101.758 23.9609C100.247 24.638 98.9323 25.5365 97.8125 26.6562C96.6927 27.776 95.7943 29.0911 95.1172 30.6016C94.4661 32.112 94.1406 33.7526 94.1406 35.5234C94.1406 37.2682 94.4661 38.9089 95.1172 40.4453C95.7943 41.9557 96.6927 43.2839 97.8125 44.4297C98.9323 45.5755 100.247 46.487 101.758 47.1641C103.294 47.8151 104.935 48.1406 106.68 48.1406C109.102 48.1406 111.289 47.5286 113.242 46.3047C115.221 45.0807 116.745 43.4922 117.812 41.5391L131.914 51.7734Z" fill="white"/>
<path d="M255.156 6.57812L278.438 64H257.227L255 56.9688L236.523 57.0469L233.867 64H212.695L235.078 6.57812H254.609H255.156ZM239.883 45.5234L250.82 45.4453L245.234 30.875L239.883 45.5234Z" fill="white"/>
<rect x="280" width="70" height="70" fill="white"/>
<path d="M308.594 64H290.664L289.961 6.57812H321.211C325.169 6.78646 328.698 7.71094 331.797 9.35156C333.125 10.1068 334.414 11.0312 335.664 12.125C336.914 13.2188 338.034 14.5859 339.023 16.2266C340.013 17.8411 340.807 19.7422 341.406 21.9297C342.031 24.1172 342.344 26.6693 342.344 29.5859C342.448 32.7891 342.148 35.862 341.445 38.8047C341.133 40.0286 340.703 41.2786 340.156 42.5547C339.635 43.8307 338.958 45.0547 338.125 46.2266C337.318 47.3984 336.341 48.4661 335.195 49.4297C334.049 50.3932 332.669 51.2005 331.055 51.8516C330.326 52.112 328.932 52.5286 326.875 53.1016C324.818 53.6484 321.888 53.9219 318.086 53.9219H308.75L308.594 64ZM308.594 36.4609L318.906 36.3828C320.182 36.3307 321.328 36.0182 322.344 35.4453C323.255 34.8984 324.062 34.0781 324.766 32.9844C325.495 31.8906 325.859 30.224 325.859 27.9844C325.859 26.2396 325.469 24.9245 324.688 24.0391C323.932 23.1536 323.099 22.5026 322.188 22.0859C321.12 21.6432 319.922 21.4219 318.594 21.4219L308.516 21.5391L308.594 36.4609Z" fill="black"/>
<rect x="420" width="70" height="70" fill="white"/>
<path d="M468.477 6.57812H487.852L465.469 48.7266V64H445.469V48.7266L422.109 6.57812H442.5L455.391 30.3281L467.773 6.57812H468.477Z" fill="black"/>
</svg>
