<svg width="210" height="70" viewBox="0 0 210 70" fill="none" xmlns="http://www.w3.org/2000/svg">
<rect width="70" height="70" fill="white"/>
<rect x="70" width="70" height="70" fill="black"/>
<rect x="140" width="70" height="70" fill="white"/>
<path d="M54.8438 6.57812V20.6406H43.1641L43.75 64H25.8984L25.3125 20.6406H12.6953V6.57812H54.4531H54.8438Z" fill="black"/>
<path d="M145.977 62.7891L145.234 6.57812H162.93L174.453 26.1484L183.711 6.57812H204.18L205 64H185.469L185.234 42.1641H184.023L175 59.8594L165.625 42.1641L164.453 42.2422L164.688 64H145.977V62.7891Z" fill="black"/>
<path d="M105.547 5.75781C109.714 5.75781 113.607 6.55208 117.227 8.14062C120.846 9.70312 124.01 11.8516 126.719 14.5859C129.453 17.2943 131.602 20.4583 133.164 24.0781C134.753 27.6979 135.547 31.5911 135.547 35.7578C135.547 39.9245 134.753 43.8177 133.164 47.4375C131.602 51.0573 129.453 54.2344 126.719 56.9688C124.01 59.6771 120.846 61.8255 117.227 63.4141C113.607 64.9766 109.714 65.7578 105.547 65.7578C101.38 65.7578 97.487 64.9766 93.8672 63.4141C90.2474 61.8255 87.0703 59.6771 84.3359 56.9688C81.6276 54.2344 79.4792 51.0573 77.8906 47.4375C76.3281 43.8177 75.5469 39.9245 75.5469 35.7578C75.5469 31.5911 76.3281 27.6979 77.8906 24.0781C79.4792 20.4583 81.6276 17.2943 84.3359 14.5859C87.0703 11.8516 90.2474 9.70312 93.8672 8.14062C97.487 6.55208 101.38 5.75781 105.547 5.75781ZM105.547 48.4141C107.318 48.4141 108.958 48.0755 110.469 47.3984C111.979 46.7214 113.307 45.8099 114.453 44.6641C115.599 43.5182 116.51 42.1901 117.188 40.6797C117.865 39.1693 118.203 37.5286 118.203 35.7578C118.203 33.987 117.865 32.3464 117.188 30.8359C116.51 29.3255 115.599 27.9974 114.453 26.8516C113.307 25.7057 111.979 24.7943 110.469 24.1172C108.958 23.4401 107.318 23.1016 105.547 23.1016C103.776 23.1016 102.135 23.4401 100.625 24.1172C99.1146 24.7943 97.7995 25.7057 96.6797 26.8516C95.5599 27.9974 94.6615 29.3255 93.9844 30.8359C93.3073 32.3464 92.9688 33.987 92.9688 35.7578C92.9688 37.5286 93.3073 39.1693 93.9844 40.6797C94.6615 42.1901 95.5599 43.5182 96.6797 44.6641C97.7995 45.8099 99.1146 46.7214 100.625 47.3984C102.135 48.0755 103.776 48.4141 105.547 48.4141Z" fill="white"/>
</svg>
